<svg xmlns="http://www.w3.org/2000/svg" id="BMW_GROUP_LOGO" width="87.719" height="45.77" viewBox="0 0 87.719 45.77"><path id="Path_14734" data-name="Path 14734" d="M4.955,20.944h8.611c2.75,0,4.417-.472,5.639-1.5a5.646,5.646,0,0,0,1.889-4.611,5.615,5.615,0,0,0-.861-3.139,7.343,7.343,0,0,0-1.639-1.583c.305-.5.722-1.167,1.111-1.833A6.274,6.274,0,0,0,20.649,5a4.8,4.8,0,0,0-2-4.028C17.538.222,16.149,0,14.01,0H4.955V20.944Zm3.361-3.166V11.889h5.5a5,5,0,0,1,2.694.5,2.708,2.708,0,0,1,1.167,2.444,2.627,2.627,0,0,1-.861,2.194c-.611.528-1.5.75-3.194.75Zm0-9.055V3.167H13.7a5.475,5.475,0,0,1,2.639.389,1.825,1.825,0,0,1,.889,1.778,4.117,4.117,0,0,1-.667,2.111c-.25.417-.528.889-.778,1.278H8.316Z" transform="translate(-4.288 0)" fill="#6f6f6f"></path><path id="Path_14735" data-name="Path 14735" d="M145.956,20.944V5.028l4.917,11.75h3.083l4.917-11.75V20.944h3.306V0h-4.444l-5.278,12.639L147.15,0h-4.5V20.944Z" transform="translate(-123.456 0)" fill="#6f6f6f"></path><path id="Path_14736" data-name="Path 14736" d="M307.687,20.944l3.472-13.083,3.472,13.083h4.417L323.159,0H319.77l-3.222,16.583L312.964,3.167h-3.583L305.8,16.583,302.576,0h-3.444l4.111,20.944Z" transform="translate(-258.882 0)" fill="#6f6f6f"></path><path id="Path_14737" data-name="Path 14737" d="M15.583,198.677v-11H12.25v8.25a33.055,33.055,0,0,1-3.555.25c-2.361,0-3.722-.583-4.472-2.083a12.884,12.884,0,0,1-.805-5.472,13.472,13.472,0,0,1,.833-5.583c.778-1.639,1.972-2.278,4.389-2.278a13.2,13.2,0,0,1,2.444.278c1.306.25,2.667.556,3.805.833v-3.278c-.861-.222-2.055-.5-3.333-.75a17.909,17.909,0,0,0-3.25-.361c-3.861,0-5.639,1.444-6.805,3.417C.389,182.761,0,185.261,0,188.678c0,3.278.417,5.667,1.361,7.305,1.139,1.972,2.805,3.389,6.833,3.389a49.5,49.5,0,0,0,7.389-.694Z" transform="translate(0 -153.602)" fill="#6f6f6f"></path><path id="Path_14738" data-name="Path 14738" d="M137.452,201.937V194.3h4.917l4.5,7.639h3.917l-4.805-8.139c.528-.556,1.389-1.528,2.055-2.333a6.711,6.711,0,0,0,1.75-4.528,5.874,5.874,0,0,0-1.861-4.528c-1.333-1.139-2.889-1.417-5.444-1.417h-8.389v20.944Zm0-10.861v-6.861h4.667c1.778,0,2.667.139,3.278.556a2.411,2.411,0,0,1,.972,2.194,4.2,4.2,0,0,1-1.083,2.694c-.361.444-.833,1-1.222,1.417Z" transform="translate(-116.048 -156.64)" fill="#6f6f6f"></path><path id="Path_14739" data-name="Path 14739" d="M269.6,177.483c-4.111,0-6.028,1.333-7.333,3.555-1.083,1.833-1.417,4.639-1.417,7.444,0,3.25.5,5.972,1.583,7.722,1.278,2.055,3.083,3.166,7.167,3.166,3.555,0,5.444-.972,6.917-3.111,1.25-1.778,1.805-4.611,1.805-7.778,0-3-.445-5.972-1.805-7.917-1.444-2.083-3.333-3.083-6.917-3.083Zm0,3.222c1.889,0,3.361.472,4.25,2.028a12.033,12.033,0,0,1,1.055,5.75c0,2.333-.25,4.694-1.333,6.083a4.559,4.559,0,0,1-3.972,1.583c-1.889,0-3.472-.306-4.389-1.889-.722-1.306-.944-3.555-.944-5.778,0-2.25.194-4.444.917-5.75.917-1.667,2.528-2.028,4.417-2.028Z" transform="translate(-225.747 -153.602)" fill="#6f6f6f"></path><path id="Path_14740" data-name="Path 14740" d="M406.647,180.993v12.889c0,2.972.333,5.111,1.75,6.611,1.389,1.528,3.222,1.917,6.055,1.917,2.667,0,4.528-.444,5.944-1.861,1.5-1.5,1.833-3.528,1.833-6.666V180.993h-3.361v12.972c0,2.194-.139,3.5-1.056,4.361a4.984,4.984,0,0,1-3.361.861,4.835,4.835,0,0,1-3.389-.889c-.917-.889-1.056-2.194-1.056-4.333V180.993Z" transform="translate(-351.931 -156.64)" fill="#6f6f6f"></path><path id="Path_14741" data-name="Path 14741" d="M544.013,201.937v-7.5c2.194,0,4.056,0,5.222-.083a6.71,6.71,0,0,0,4.694-1.722,7.145,7.145,0,0,0,1.694-5.083,7.012,7.012,0,0,0-1.639-4.861c-1.167-1.194-2.667-1.694-4.972-1.694h-8.361v20.944Zm0-10.722v-7h4.639c1.333,0,2.139.139,2.722.722a3.562,3.562,0,0,1,.833,2.611,3.751,3.751,0,0,1-.694,2.611,3.384,3.384,0,0,1-2.611.972c-1.278.083-3.028.083-4.889.083Z" transform="translate(-467.905 -156.64)" fill="#6f6f6f"></path></svg>