<svg xmlns="http://www.w3.org/2000/svg" width="86" height="40" viewBox="0 0 86 40" fill="none"><g clip-path="url(#clip0_301_525)"><path d="M4.87345 23.6279H9.21078C10.0329 23.6279 10.8009 24.2216 10.8426 25.0085H10.8821V21.7749H4.87345L4.87052 16.0989H10.6678C11.4935 16.0989 12.2623 16.6905 12.3054 17.4753H12.3435L12.3376 14.2395L0.171875 14.2445V14.28C0.991067 14.3241 1.60546 15.1819 1.60546 15.9832V30.8523C1.60546 31.6507 0.991067 32.5121 0.171875 32.5577V32.5924H6.30996V32.5577C5.49004 32.5121 4.87052 31.6507 4.87052 30.8523L4.87345 23.6279Z" fill="#E60012"></path><path d="M17.4335 27.6582C17.4335 29.5661 19.0426 31.2159 21.0284 31.2159C23.0121 31.2159 24.627 29.5444 24.627 27.6358V15.983C24.627 15.1816 24.0104 14.3239 23.1891 14.2798V14.245L29.3315 14.2393V14.2798C28.5116 14.3239 27.8906 15.1816 27.8906 15.983V27.306C27.8906 30.9504 24.8348 33.0739 21.0445 33.0739C17.2477 33.0739 14.1589 30.9504 14.1589 27.306L14.167 15.983C14.167 15.1816 13.5475 14.3239 12.7319 14.2798V14.2393H18.8656V14.2798C18.0479 14.3282 17.4306 15.1867 17.4306 15.983L17.4335 27.6582Z" fill="#E60012"></path><path d="M67.6212 17.2112C66.5921 15.5716 64.2435 15.769 64.2435 15.769C60.402 15.769 60.5834 18.6584 60.5834 18.6584C60.5834 18.6584 60.3194 20.1078 62.2496 21.0964L66.0903 23.1085C69.7979 25.0699 69.3583 27.8573 69.3583 27.8573C69.3583 27.8573 69.5258 33.0646 61.772 33.0646C61.772 33.0646 59.5192 33.1326 58.2436 32.661L57.1523 29.2886H57.1904C58.3716 30.9679 61.8035 31.2102 61.8035 31.2102C66.1605 31.0214 66.1905 28.1024 66.1905 28.1024C66.1905 28.1024 66.3865 26.8455 64.6809 25.9349L60.8585 23.9236C56.8678 21.8211 57.325 18.9896 57.325 18.9896C57.325 18.9896 57.2306 13.8669 64.0906 13.8669C64.0906 13.8669 67.1699 13.945 67.6607 14.4187V17.2112H67.6212Z" fill="#E60012"></path><path d="M37.6925 7.85879C38.3727 8.51694 39.3221 8.92123 40.3585 8.92123C42.4467 8.92123 44.137 7.29684 44.137 5.28912C44.137 3.2872 42.4467 1.65991 40.3585 1.65991C40.3585 1.65991 37.4497 1.39448 36.1404 4.97307L36.1448 2.28696C37.1191 1.06107 38.6272 0.170035 40.3585 0.170035C43.3047 0.170035 45.6884 2.45981 45.6884 5.28912C45.6884 8.1141 43.3047 10.4126 40.3585 10.4126C38.8869 10.4126 37.5557 9.84192 36.5939 8.91111L34.761 6.93015C34.2585 6.44775 33.5673 6.15412 32.8095 6.15412C31.283 6.15412 30.0455 7.34023 30.0455 8.80551C30.0455 10.2766 31.283 11.4656 32.8095 11.4656C32.8095 11.4656 34.8509 11.7288 36.1404 9.29659L36.1448 11.4475C35.3549 12.3689 34.1488 12.9569 32.8095 12.9569C30.4266 12.9569 28.4912 11.0982 28.4912 8.80551C28.4912 6.51718 30.4266 4.6628 32.8095 4.6628C33.9966 4.6628 35.0747 5.12133 35.8574 5.87784L37.6925 7.85879Z" fill="#E60012"></path><path d="M38.6745 15.9445C38.6745 15.1424 38.0572 14.3208 37.2388 14.2796V14.2448H43.3673V14.2796C42.554 14.3244 41.9338 15.1467 41.9338 15.9445V30.8454C41.9338 31.6453 42.554 32.5059 43.3673 32.5537V32.5876H37.2388V32.5537C38.0572 32.5059 38.6745 31.6453 38.6745 30.8454V15.9445Z" fill="#E60012"></path><path d="M34.8258 15.9832C34.8258 15.1818 35.4416 14.3241 36.2608 14.28V14.2445H30.1227V14.28C30.9441 14.3241 31.557 15.1818 31.557 15.9832L31.5622 34.6117C31.5622 34.6117 31.4934 37.901 28.8135 39.7937L28.8201 39.8298C29.3489 39.7445 34.8301 38.7443 34.8301 33.5087L34.8258 15.9832Z" fill="#E60012"></path><path d="M43.3442 17.5456H43.3808C44.2117 16.1157 45.4932 16.0991 45.4932 16.0991H48.816L48.8182 30.8525C48.8182 31.6509 48.2001 32.5058 47.3817 32.5535V32.5875H53.5278V32.5535C52.7028 32.5058 52.0825 31.6451 52.0825 30.8525L52.0869 16.0991L54.8641 16.0926C55.7075 16.0926 56.3752 16.7392 56.3994 17.5456H56.433L57.4534 14.2389H44.3675L43.3442 17.5456Z" fill="#E60012"></path><path d="M73.9313 27.6582C73.9313 29.5661 75.5404 31.2159 77.527 31.2159C79.5084 31.2159 81.1248 29.5444 81.1248 27.6358V15.983C81.1248 15.1816 80.5075 14.3239 79.6898 14.2798V14.245L85.8279 14.2393V14.2798C85.0138 14.3239 84.3936 15.1816 84.3936 15.983V27.306C84.3936 30.9504 81.3362 33.0739 77.5401 33.0739C73.7506 33.0739 70.6611 30.9504 70.6611 27.306L70.6655 15.983C70.6655 15.1816 70.0475 14.3239 69.2275 14.2798V14.2393H75.3671V14.2798C74.545 14.3282 73.9269 15.1867 73.9269 15.983L73.9313 27.6582Z" fill="#E60012"></path></g><defs><clipPath id="clip0_301_525"><rect width="86" height="40" fill="white"></rect></clipPath></defs></svg>