<svg xmlns="http://www.w3.org/2000/svg" width="171" height="30" viewBox="0 0 171 30" fill="none"><path d="M20.3405 12.0172C20.2291 12.0172 20.1353 12.0202 20.0826 12.0262C20.021 12.1402 19.9301 12.2932 19.7953 12.5062C21.8939 12.5062 23.7992 12.6831 25.9065 13.0701L25.3116 13.658C23.4093 13.3131 21.8295 13.1751 19.8158 13.1751C19.5228 13.1751 19.4612 13.1751 19.3909 13.1781C19.3205 13.286 19.1622 13.496 19.004 13.691C19.1827 13.679 19.5286 13.673 20.0063 13.673C21.6624 13.673 23.21 13.799 24.8895 14.075L24.2944 14.6659C23.0165 14.4619 21.4543 14.3449 20.0532 14.3449C19.555 14.3449 18.9893 14.3629 18.4822 14.3929C18.3679 14.5279 18.069 14.8579 17.9781 14.9598C18.6493 14.8879 19.3879 14.8548 20.2672 14.8548C21.5188 14.8548 22.7147 14.9389 23.846 15.1098L23.251 15.6947C22.445 15.5928 21.466 15.5328 20.6014 15.5328C18.3709 15.5328 16.6122 16.0277 14.7949 17.1645C16.5272 19.0663 19.3645 20.2691 22.1138 20.2691H22.3717L21.4104 21.2201C17.4446 20.4581 13.2708 18.6734 9.7448 16.2286C6.35357 13.886 5.16651 13.1931 2.51979 11.9963L2.50221 11.3003L4.29307 12.0862L4.90273 11.5913L10.7501 14.3329L10.3691 14.6449L7.36772 13.3101L7.07168 13.547L8.63103 14.4379C9.94708 15.1879 10.9494 15.5238 11.8757 15.5238C13.901 15.5238 15.7183 14.054 16.8907 11.4713C17.7729 11.3543 18.7138 11.3003 19.8451 11.3003C22.1665 11.3003 24.4205 11.5283 26.9734 12.0172L26.352 12.6321C24.7635 12.2932 22.0639 12.0172 20.3405 12.0172ZM14.6572 29.0999C7.05017 29.0999 0.879504 22.7849 0.879504 15C0.879504 7.21501 7.05017 0.899937 14.6572 0.899937C22.2642 0.899937 28.4349 7.21501 28.4349 15C28.4349 22.7849 22.2642 29.0999 14.6572 29.0999ZM14.6572 0C6.55185 0 0 6.70496 0 15C0 23.295 6.55185 30 14.6572 30C22.7626 30 29.3144 23.295 29.3144 15C29.3144 6.70496 22.7626 0 14.6572 0ZM53.3799 20.9714H61.7834V25H48.8572V4.99992H53.3799V20.9714ZM71.9457 10.6H76.1613V25H72.197V23.3429C71.6106 24.4572 70.4103 25.4285 68.2046 25.4285C64.6033 25.4285 62.7327 23.7714 62.7327 19.0285V10.6H66.9484V18.8284C66.9484 20.7428 67.7581 21.5999 69.4611 21.5999C70.9966 21.5999 71.9457 20.7428 71.9457 18.8284V10.6ZM79.3999 10.0572C79.3999 6.57154 81.5498 4.71424 84.9278 4.71424C86.0168 4.71424 86.7146 4.88569 86.7146 4.88569V8.37134C86.7146 8.37134 86.1283 8.31441 85.6257 8.31441C84.3136 8.31441 83.6155 8.77154 83.6155 10.0286V10.6H86.7146V14.1143H83.6155V25H79.3999V14.1143H77.2782V10.6H79.3999V10.0572ZM94.1404 10.6H97.3511V14.1143H94.1404V19.7143C94.1404 21.2572 94.9222 21.6572 96.1508 21.6572C96.6534 21.6572 97.3511 21.5715 97.3511 21.5715V25.0286C97.3511 25.0286 96.3742 25.257 95.3414 25.257C91.9632 25.257 89.9252 23.6857 89.9252 20.2001V14.1143H87.8032V10.6H89.9252V6.40002H94.1404V10.6ZM106.685 10.1714C110.259 10.1714 112.129 11.8285 112.129 16.5714V25H107.913V16.7713C107.913 14.8572 107.104 14.0001 105.345 14.0001C103.753 14.0001 102.804 14.8572 102.804 16.7713V25H98.5886V5.02856H102.832V11.9999C103.558 10.9427 104.702 10.1714 106.685 10.1714ZM122.877 19.3999C122.877 20.9714 121.425 22.1429 119.192 22.1429C118.104 22.1429 117.461 21.6287 117.461 20.6571C117.461 19.9143 117.908 19.2858 119.332 19.0859L121.761 18.7429C122.179 18.6856 122.626 18.6001 122.877 18.5143V19.3999ZM120.532 10.1715C116.372 10.1715 114.362 11.8001 114.195 14.8572H118.299C118.355 14.0571 118.801 13.4571 120.532 13.4571C122.068 13.4571 122.794 13.9715 122.794 14.7428C122.794 15.4287 122.375 15.6858 121.342 15.8L118.662 16.0857C115.032 16.4856 113.385 18.0286 113.385 20.8287C113.385 23.4286 114.949 25.4285 118.271 25.4285C120.532 25.4285 121.873 24.6857 123.045 23.1999V25H126.898V15.5429C126.898 11.5715 124.637 10.1715 120.532 10.1715ZM136.646 10.1714C140.303 10.1714 142.174 11.8285 142.174 16.5714V25H137.958V16.7713C137.958 14.8572 137.148 14.0001 135.39 14.0001C133.798 14.0001 132.849 14.8572 132.849 16.7713V25H128.633V10.6001H132.597V12.2573C133.184 11.1428 134.384 10.1714 136.646 10.1714ZM151.067 15.9714C154.64 16.4572 156.427 17.6 156.427 20.6C156.427 23.6286 154.333 25.4286 149.894 25.4286C145.064 25.4286 143.361 23.4573 143.277 20.5713H147.437C147.549 21.6287 148.274 22.1429 149.894 22.1429C151.541 22.1429 152.211 21.7428 152.211 20.9429C152.211 20.2001 151.653 19.8573 150.201 19.6573L148.721 19.4571C145.622 19.0286 143.836 17.8001 143.836 14.9429C143.836 12.2 145.818 10.1714 149.978 10.1714C153.83 10.1714 155.897 11.7428 156.092 14.8572H151.988C151.848 14.0288 151.402 13.5143 149.978 13.5143C148.582 13.5143 148.052 14.0001 148.052 14.6288C148.052 15.2571 148.387 15.6 149.587 15.7716L151.067 15.9714ZM166.98 19.4002C166.98 20.9715 165.528 22.1429 163.295 22.1429C162.206 22.1429 161.564 21.6287 161.564 20.6571C161.564 19.9143 162.011 19.2858 163.434 19.0859L165.863 18.7429C166.282 18.6859 166.728 18.6001 166.98 18.5143V19.4002ZM164.634 10.1715C160.475 10.1715 158.465 11.8001 158.297 14.8572H162.401C162.457 14.0571 162.904 13.4573 164.634 13.4573C166.171 13.4573 166.897 13.9715 166.897 14.743C166.897 15.4287 166.477 15.6858 165.445 15.8L162.764 16.0857C159.135 16.4858 157.488 18.0286 157.488 20.8287C157.488 23.4286 159.051 25.4285 162.373 25.4285C164.634 25.4285 165.975 24.6857 167.147 23.1999V25H171V15.5429C171 11.5717 168.739 10.1715 164.634 10.1715Z" fill="#0A1D3D"></path></svg>