<svg xmlns="http://www.w3.org/2000/svg" width="52" height="50" viewBox="0 0 52 50" fill="none"><g clip-path="url(#clip0_301_528)"><path d="M51.4309 25C51.4309 38.5156 40.0559 49.4531 25.9996 49.4531C11.9434 49.4531 0.568359 38.5156 0.568359 25C0.568359 11.4844 11.9434 0.546875 25.9996 0.546875C40.0559 0.546875 51.4309 11.4844 51.4309 25ZM25.9996 2.03125C12.7559 2.03125 2.11211 12.2656 2.11211 25C2.11211 37.7344 12.8371 47.9688 25.9996 47.9688C39.2434 47.9688 49.8871 37.6562 49.8871 25C49.8871 12.2656 39.2434 2.03125 25.9996 2.03125Z" fill="url(#paint0_linear_301_528)"></path><path d="M25.9998 2.03125C12.7561 2.03125 2.1123 12.2656 2.1123 25C2.1123 37.7344 12.8373 47.9688 25.9998 47.9688C39.2436 47.9688 49.8873 37.6563 49.8873 25C49.8873 12.2656 39.2436 2.03125 25.9998 2.03125ZM25.9998 46.4844C13.6498 46.4844 3.65605 36.875 3.65605 25C3.65605 13.125 13.6498 3.51563 25.9998 3.51563C38.3498 3.51563 48.3436 13.125 48.3436 25C48.3436 36.875 38.3498 46.4844 25.9998 46.4844Z" fill="url(#paint1_linear_301_528)"></path><path opacity="0.4" d="M26 49.4531C40.0562 49.4531 51.4312 38.5156 51.4312 25C51.4312 11.4844 40.0562 0.546875 26 0.546875C11.9438 0.546875 0.56875 11.4844 0.56875 25C0.56875 38.5156 11.9438 49.4531 26 49.4531ZM26 0C40.3 0 52 11.25 52 25C52 38.75 40.3 50 26 50C11.7 50 0 38.75 0 25C0 11.25 11.7 0 26 0Z" fill="url(#paint2_linear_301_528)"></path><path d="M1.78711 25.0781C1.78711 12.2656 12.5934 1.71875 25.9996 1.71875C39.4059 1.71875 50.2121 12.1875 50.2121 25.0781C50.2121 37.8906 39.4059 48.2812 25.9996 48.2812C12.5934 48.2812 1.78711 37.8906 1.78711 25.0781ZM9.34336 8.98438C5.03711 13.125 2.35586 18.8281 2.35586 25.0781C2.35586 31.3281 5.03711 37.0312 9.26211 41.0937C13.5684 45.1562 19.4996 47.7344 25.9996 47.7344C32.4996 47.7344 38.4309 45.2344 42.6559 41.0937C46.9621 37.0312 49.5621 31.3281 49.5621 25.0781C49.5621 18.8281 46.8809 13.125 42.6559 8.98438C38.4309 4.84375 32.4996 2.26563 25.9996 2.26563C19.4996 2.26563 13.5684 4.84375 9.34336 8.98438Z" fill="white"></path><path opacity="0.4" d="M26.0002 46.5625C19.9877 46.5625 14.3814 44.2969 10.1564 40.2344C5.93145 36.1719 3.5752 30.7813 3.5752 25C3.5752 19.2188 5.93145 13.8281 10.1564 9.76563C14.3814 5.70313 19.9877 3.4375 26.0002 3.4375C32.0127 3.4375 37.6189 5.70313 41.8439 9.76563C46.0689 13.8281 48.4252 19.2188 48.4252 25C48.4252 30.7813 46.0689 36.1719 41.8439 40.2344C37.6189 44.2969 32.0127 46.5625 26.0002 46.5625ZM26.0002 45.9375C31.7689 45.9375 37.2939 43.75 41.3564 39.8437C45.5002 35.8594 47.6939 30.625 47.6939 25.0781C47.6939 19.5312 45.4189 14.2187 41.3564 10.3125C37.2127 6.32812 31.7689 4.21875 26.0002 4.21875C20.2314 4.21875 14.7064 6.40625 10.6439 10.3125C6.5002 14.1406 4.2252 19.4531 4.2252 25C4.2252 30.5469 6.5002 35.8594 10.5627 39.7656C14.7064 43.75 20.2314 45.9375 26.0002 45.9375Z" fill="url(#paint3_linear_301_528)"></path><path d="M45.7441 35.1563C45.3379 34.8438 29.6566 22.8906 29.6566 22.8906L26.0004 2.8125C25.7566 2.89063 25.4316 3.125 25.2691 3.4375L22.6691 22.9687L6.50039 34.9219C6.50039 34.9219 6.17539 35.3125 6.01289 35.5469C5.93164 35.7031 5.93164 35.9375 5.93164 36.1719L25.9191 28.2813L45.9066 36.1719C46.0691 35.7813 45.9066 35.3906 45.7441 35.1563Z" fill="white"></path><path d="M26.1625 25.625L26 29.2188L44.3625 36.3281C45.0125 36.6406 45.5 36.4844 45.9875 36.1719L26.4062 25.5469C26.325 25.4688 26.1625 25.5469 26.1625 25.625Z" fill="#565F64"></path><path d="M26.1621 25.625C26.1621 25.625 27.2184 27.4219 28.4371 28.6719C30.1434 30.4688 32.4184 31.7188 32.4184 31.7188L44.3621 36.3281C45.0121 36.6406 45.4996 36.4844 45.9871 36.1719L26.4059 25.5469C26.3246 25.4688 26.1621 25.5469 26.1621 25.625Z" fill="url(#paint4_linear_301_528)"></path><path d="M45.9064 35.4688C45.9064 35.3906 45.8252 35.3125 45.7439 35.1563L29.0064 23.3594L26.7314 24.7656C26.7314 24.7656 26.8939 24.8438 26.9752 24.7656C27.2189 24.6875 27.7064 24.6094 28.1939 24.7656C28.6002 24.9219 45.9064 35.5469 45.9064 35.5469V35.4688Z" fill="#A4AAAE" fill-opacity="0.6"></path><path d="M45.3371 34.7656L29.7371 22.8906L29.0059 23.3594L45.7434 35.2344C45.6621 35.0781 45.4996 34.9219 45.3371 34.7656Z" fill="#333E46"></path><path d="M26.4064 24.4531L26.3252 24.5312C26.3252 24.5312 26.3252 24.6875 26.4877 24.6094C26.5689 24.5312 28.9252 23.3594 29.7377 22.8906L26.8939 4.14063C26.8127 3.4375 26.4877 3.125 25.9189 2.89062L26.2439 24.6094L26.4064 24.4531Z" fill="#565F64"></path><path d="M25.0252 4.14063V5.15625L23.2377 22.4219C23.2377 22.6563 23.3189 22.8906 23.5627 23.0469L24.6189 23.8281L25.3502 4.76563L25.4314 3.28125C25.1877 3.4375 25.1064 3.75 25.0252 4.14063ZM24.0502 24.1406L23.0752 23.3594L6.58145 34.8437C6.58145 34.8437 6.09395 35.1563 6.0127 35.4688L6.58145 35.1562L23.8877 24.6875C24.2127 24.5313 24.2939 24.375 24.0502 24.1406Z" fill="#A4AAAE" fill-opacity="0.6"></path><path d="M25.7566 25.625C25.7566 25.5469 25.6754 25.4688 25.5941 25.5469L5.93164 36.25C6.41914 36.5625 6.90664 36.6406 7.55664 36.4063L25.9191 29.2969L25.7566 25.625Z" fill="#565F64"></path><path d="M26.3252 24.5312C26.3252 24.5312 26.3252 24.6094 26.4064 24.6094H26.4877C26.5689 24.5313 28.9252 23.3594 29.7377 22.8906L29.4127 20.625L26.8939 4.14063C26.8939 3.82813 26.8127 3.59375 26.6502 3.4375C26.6502 3.4375 27.8689 19.2187 27.8689 20.9375C27.8689 23.2031 26.3252 24.5312 26.3252 24.5312Z" fill="url(#paint5_linear_301_528)"></path><path d="M25.7566 25.625C25.7566 25.5469 25.6754 25.4688 25.5941 25.5469L5.93164 36.25C6.41914 36.5625 6.90664 36.6406 7.55664 36.4063L25.9191 29.2969L25.7566 25.625Z" fill="url(#paint6_linear_301_528)" fill-opacity="0.8"></path><path opacity="0.8" d="M7.55586 36.3281L25.9184 29.2188L25.7559 25.7812C25.4309 26.7187 24.8621 27.7344 23.3184 28.5156C22.1809 29.1406 11.2934 34.2969 7.39336 36.0937C7.14961 36.25 6.82461 36.3281 6.66211 36.4062C6.98711 36.5625 7.23086 36.4844 7.55586 36.3281Z" fill="url(#paint7_linear_301_528)"></path><path d="M26.4064 24.4531L26.3252 24.5312C26.3252 24.5312 26.3252 24.6875 26.4877 24.6094C26.5689 24.5312 28.9252 23.3594 29.7377 22.8906L26.8939 4.14063C26.8127 3.4375 26.4877 3.125 25.9189 2.89062L26.2439 24.6094L26.4064 24.4531Z" fill="url(#paint8_linear_301_528)"></path><path d="M26.4064 24.4531L26.3252 24.5312C26.3252 24.5312 26.3252 24.6875 26.4877 24.6094C26.5689 24.5312 28.9252 23.3594 29.7377 22.8906L26.8939 4.14063C26.8127 3.4375 26.4877 3.125 25.9189 2.89062L26.2439 24.6094L26.4064 24.4531Z" fill="url(#paint9_linear_301_528)"></path><path d="M4.14336 34.6875C3.57461 33.4375 0.32461 27.3438 3.89961 15.625H2.51836C1.78711 17.9688 1.21836 19.375 0.893359 21.4844C0.893359 21.4844 0.730859 22.2656 0.649609 23.125C0.568359 23.9844 0.568359 24.4531 0.568359 25C0.568359 29.6875 1.78711 32.4219 1.78711 32.4219C3.08711 36.3281 5.36211 39.8438 8.44961 42.5C11.1309 44.7656 15.2746 46.4844 18.6871 47.1094C18.1184 47.0312 8.36836 43.0469 4.14336 34.6875Z" fill="url(#paint10_linear_301_528)"></path><path d="M26.325 25.4688H25.5938C25.675 25.4688 25.7563 25.4688 25.7563 25.5469L25.9187 29.1406H26L26.1625 25.5469C26.1625 25.4688 26.2438 25.3906 26.325 25.4688Z" fill="url(#paint11_linear_301_528)"></path><path d="M34.125 1.79688C42.6563 4.92188 50.7 13.5156 50.7 24.375C50.7 37.5 39.8125 48.2031 26 48.2031V49.4531C39.8125 49.4531 51.4313 38.5156 51.4313 25C51.4313 14.2188 44.2813 5.15625 34.125 1.79688Z" fill="url(#paint12_linear_301_528)"></path><path d="M47.775 15.7813C42.0875 3.20312 29.25 2.5 28.5187 2.42188H28.4375C38.2688 4.14063 44.525 10.3125 46.7188 16.7969V16.875C47.6938 19.375 48.1813 22.0312 48.2625 24.9219C48.3438 27.6562 47.6938 30.7031 46.475 33.5156C46.3938 33.9063 46.3125 34.375 46.2313 34.375H47.5313C51.4313 27.3438 49.725 20.2344 47.775 15.7813Z" fill="url(#paint13_linear_301_528)"></path><path d="M1.78711 25.0781C1.78711 12.2656 12.5934 1.71875 25.9996 1.71875C39.4059 1.71875 50.2121 12.1875 50.2121 25.0781C50.2121 37.8906 39.4059 48.2812 25.9996 48.2812C12.5934 48.2812 1.78711 37.8906 1.78711 25.0781ZM9.34336 8.98438C5.03711 13.125 2.35586 18.8281 2.35586 25.0781C2.35586 31.3281 5.03711 37.0312 9.26211 41.0937C13.5684 45.1562 19.4996 47.7344 25.9996 47.7344C32.4996 47.7344 38.4309 45.2344 42.6559 41.0937C46.9621 37.0312 49.5621 31.3281 49.5621 25.0781C49.5621 18.8281 46.8809 13.125 42.6559 8.98438C38.4309 4.84375 32.4996 2.26563 25.9996 2.26563C19.4996 2.26563 13.5684 4.84375 9.34336 8.98438Z" fill="#FBFBFB"></path><path d="M6.41895 35L22.9939 23.5156C23.8877 23.9844 25.3502 24.6094 25.5127 24.6094C25.6752 24.6875 25.6752 24.5312 25.6752 24.5312L23.6439 22.8906C23.4002 22.7344 23.3189 22.5 23.3189 22.2656L25.2689 3.4375C25.1877 3.51562 25.1877 3.67188 25.1064 3.75C25.0252 3.90625 25.0252 3.98438 25.0252 4.14063L22.1814 22.9687L6.58145 34.7656C6.5002 34.8437 6.41895 34.9219 6.41895 35Z" fill="#333F47"></path></g><defs><linearGradient id="paint0_linear_301_528" x1="6.49961" y1="9.29688" x2="44.2304" y2="42.1604" gradientUnits="userSpaceOnUse"><stop stop-color="white"></stop><stop offset="0.1" stop-color="#CDD0D0"></stop><stop offset="0.2" stop-color="#A5ACAF"></stop><stop offset="0.3" stop-color="#98A0A4"></stop><stop offset="0.4" stop-color="#828A8F"></stop><stop offset="0.5" stop-color="#667075"></stop><stop offset="0.6" stop-color="#535C63"></stop><stop offset="0.7" stop-color="#475158"></stop><stop offset="0.8" stop-color="#434D54"></stop><stop offset="1" stop-color="#475157"></stop></linearGradient><linearGradient id="paint1_linear_301_528" x1="7.69418" y1="10.2031" x2="43.0627" y2="41.1011" gradientUnits="userSpaceOnUse"><stop stop-color="#0B1F2A"></stop><stop offset="0.2" stop-color="#333F47"></stop><stop offset="0.5" stop-color="#81898D"></stop><stop offset="0.7" stop-color="#B3B8B8"></stop><stop offset="0.8" stop-color="#DEE0DD"></stop><stop offset="1" stop-color="#FBFBFB"></stop></linearGradient><linearGradient id="paint2_linear_301_528" x1="34.8904" y1="48.4898" x2="18.2927" y2="1.04021" gradientUnits="userSpaceOnUse"><stop stop-color="#E1E3E1"></stop><stop offset="0.1" stop-color="#C1C5C4"></stop><stop offset="0.3" stop-color="#9BA1A2"></stop><stop offset="0.5" stop-color="#7D8487"></stop><stop offset="0.7" stop-color="#687074" stop-opacity="0"></stop><stop offset="0.8" stop-color="#5B6469" stop-opacity="0"></stop><stop offset="1" stop-color="#576065" stop-opacity="0"></stop></linearGradient><linearGradient id="paint3_linear_301_528" x1="14.7877" y1="6.32812" x2="35.9195" y2="44.3899" gradientUnits="userSpaceOnUse"><stop stop-color="#E1E3E1"></stop><stop offset="0.1" stop-color="#C1C5C4"></stop><stop offset="0.3" stop-color="#9BA1A2"></stop><stop offset="0.5" stop-color="#7D8487"></stop><stop offset="0.7" stop-color="#687074" stop-opacity="0"></stop><stop offset="0.8" stop-color="#5B6469" stop-opacity="0"></stop><stop offset="1" stop-color="#576065" stop-opacity="0"></stop></linearGradient><linearGradient id="paint4_linear_301_528" x1="36.1477" y1="30.7734" x2="34.8442" y2="33.0063" gradientUnits="userSpaceOnUse"><stop stop-color="#27343C"></stop><stop offset="1" stop-color="#00111E" stop-opacity="0"></stop></linearGradient><linearGradient id="paint5_linear_301_528" x1="32.1589" y1="22.7422" x2="30.0103" y2="19.1509" gradientUnits="userSpaceOnUse"><stop offset="0.1" stop-color="#02131F"></stop><stop offset="0.9" stop-color="#02131F" stop-opacity="0"></stop></linearGradient><linearGradient id="paint6_linear_301_528" x1="25.9841" y1="28.3906" x2="22.5925" y2="29.3984" gradientUnits="userSpaceOnUse"><stop offset="0.2" stop-color="#02131F"></stop><stop offset="0.9" stop-color="#02131F" stop-opacity="0"></stop></linearGradient><linearGradient id="paint7_linear_301_528" x1="16.8915" y1="32.7344" x2="16.436" y2="31.5502" gradientUnits="userSpaceOnUse"><stop stop-color="#02131F"></stop><stop offset="0.1" stop-color="#02131F"></stop><stop offset="1" stop-color="#02131F" stop-opacity="0"></stop></linearGradient><linearGradient id="paint8_linear_301_528" x1="28.9252" y1="13.4453" x2="26.1658" y2="13.7829" gradientUnits="userSpaceOnUse"><stop offset="0.3" stop-color="#02131F"></stop><stop offset="0.8" stop-color="#02131F" stop-opacity="0"></stop></linearGradient><linearGradient id="paint9_linear_301_528" x1="29.0146" y1="13.4062" x2="27.1484" y2="13.6594" gradientUnits="userSpaceOnUse"><stop offset="0.4" stop-color="#27343C"></stop><stop offset="1" stop-color="#3B474E" stop-opacity="0"></stop></linearGradient><linearGradient id="paint10_linear_301_528" x1="-0.292891" y1="25.6484" x2="21.923" y2="38.9812" gradientUnits="userSpaceOnUse"><stop stop-color="#25323B" stop-opacity="0"></stop><stop offset="0.1" stop-color="#27343C"></stop></linearGradient><linearGradient id="paint11_linear_301_528" x1="25.9594" y1="29.2188" x2="25.9594" y2="25.4688" gradientUnits="userSpaceOnUse"><stop offset="0.3" stop-color="#A5ABAF"></stop><stop offset="1" stop-color="#A5ABAF" stop-opacity="0"></stop></linearGradient><linearGradient id="paint12_linear_301_528" x1="38.7156" y1="1.79688" x2="38.7156" y2="49.4531" gradientUnits="userSpaceOnUse"><stop stop-color="#6B7378"></stop><stop offset="0.2" stop-color="#333F47"></stop><stop offset="0.5" stop-color="#27343C"></stop><stop offset="0.8" stop-color="#333F47"></stop><stop offset="1" stop-color="#434D54"></stop></linearGradient><linearGradient id="paint13_linear_301_528" x1="46.5481" y1="6.32031" x2="36.1581" y2="22.1685" gradientUnits="userSpaceOnUse"><stop offset="0.7" stop-color="#49545B"></stop><stop offset="0.8" stop-color="white" stop-opacity="0"></stop></linearGradient><clipPath id="clip0_301_528"><rect width="52" height="50" fill="white"></rect></clipPath></defs></svg>