<svg xmlns="http://www.w3.org/2000/svg" xmlns:xlink="http://www.w3.org/1999/xlink" width="36.033" height="36.033" viewBox="0 0 36.033 36.033"><defs><style>
      .cls-1 {
        fill: url(#linear-gradient);
      }

      .cls-2 {
        fill: #fff;
      }
    </style><linearGradient id="linear-gradient" x1="0.266" y1="0.898" x2="1.047" y2="0.108" gradientUnits="objectBoundingBox"><stop offset="0" stop-color="#00ceb5"></stop><stop offset="1" stop-color="#effcfb"></stop></linearGradient></defs><g id="monitoring-eye-icon" transform="translate(-3 -3)"><path id="Path_32" data-name="Path 32" class="cls-1" d="M39.033,21.017A18.017,18.017,0,1,1,21.017,3,18.017,18.017,0,0,1,39.033,21.017Z" transform="translate(0 0)"></path><path id="Path_4345" data-name="Path 4345" class="cls-2" d="M10,98.725c-3.823,0-7.289,2.091-9.847,5.488a.792.792,0,0,0,0,.945c2.558,3.4,6.025,5.493,9.847,5.493s7.289-2.091,9.847-5.488a.792.792,0,0,0,0-.945C17.293,100.816,13.827,98.725,10,98.725Zm.274,10.162a4.208,4.208,0,1,1,3.925-3.925A4.211,4.211,0,0,1,10.278,108.887Zm-.127-1.94a2.266,2.266,0,1,1,2.116-2.116A2.262,2.262,0,0,1,10.151,106.948Z" transform="translate(11.013 -83.672)"></path></g></svg>