<svg xmlns="http://www.w3.org/2000/svg" xmlns:xlink="http://www.w3.org/1999/xlink" id="Layer_1" x="0px" y="0px" viewBox="0 0 2000 364.62" style="enable-background:new 0 0 2000 364.62;" xml:space="preserve"><style type="text/css">	.st0{fill:#0F1718;}</style><g>	<path class="st0" d="M474.38,96.06v66.11h-28.92c-20.66,0-35.81,6.2-45.45,18.59c-9.64,12.4-14.46,29.27-14.46,50.61v130.15h-72.82  V96.06h66.11l6.71,39.77c7.92-13.08,17.73-22.98,29.44-29.7c11.7-6.71,27.37-10.07,47-10.07H474.38z"></path>	<path class="st0" d="M494.26,157.26c11.18-20.48,26.86-36.32,47-47.51c20.14-11.19,43.46-16.79,69.98-16.79  c26.86,0,50.52,5.25,71.01,15.75c20.48,10.51,36.49,25.31,48.03,44.42c11.53,19.11,17.47,41.58,17.82,67.4  c0,9.3-0.69,17.56-2.07,24.79H553.39v2.07c1.72,19.29,7.92,34.43,18.59,45.45c10.67,11.02,25.31,16.53,43.9,16.53  c14.8,0,27.11-3.18,36.93-9.55c9.81-6.37,16.27-15.75,19.37-28.15h71.79c-2.76,17.56-9.47,33.4-20.14,47.51  c-10.68,14.12-24.79,25.23-42.35,33.31c-17.56,8.09-37.7,12.14-60.43,12.14c-29.62,0-55.18-5.5-76.69-16.53  c-21.52-11.02-38.05-26.77-49.58-47.26c-11.54-20.48-17.3-44.33-17.3-71.53C477.47,201.77,483.06,177.75,494.26,157.26z   M675.28,197.81c-2.41-16.18-9.04-28.66-19.88-37.44c-10.85-8.78-24.53-13.17-41.06-13.17c-15.84,0-29.18,4.57-40.03,13.69  c-10.85,9.13-17.3,21.43-19.37,36.93H675.28z"></path>	<path class="st0" d="M744.48,96.06h76.95l53.2,186.96l50.1-186.96h65.59l48.55,187.48l54.23-187.48h74.37l-87.28,265.46h-77.47  l-46.48-160.1l-47.51,160.1h-77.47L744.48,96.06z"></path>	<path class="st0" d="M1440.15,96.06v265.46h-64.56l-6.2-37.19c-21.01,26.52-48.55,39.77-82.63,39.77  c-23.42,0-44.42-5.5-63.01-16.53c-18.59-11.02-33.14-26.86-43.64-47.51c-10.51-20.66-15.75-44.59-15.75-71.79  c0-26.86,5.25-50.61,15.75-71.27c10.5-20.66,25.13-36.58,43.9-47.77c18.76-11.18,39.85-16.78,63.27-16.78  c17.9,0,33.74,3.45,47.52,10.33c13.77,6.89,25.13,16.36,34.09,28.41l7.23-35.12H1440.15z M1350.8,284.31  c11.7-13.94,17.56-32.28,17.56-55c0-23.06-5.86-41.66-17.56-55.78c-11.71-14.11-27.37-21.18-47-21.18  c-19.62,0-35.38,7.06-47.26,21.18c-11.88,14.12-17.82,32.72-17.82,55.78c0,22.72,5.94,41.06,17.82,55s27.63,20.92,47.26,20.92  C1323.43,305.23,1339.09,298.26,1350.8,284.31z"></path>	<path class="st0" d="M1454.61,96.06h77.99l64.04,191.09l63.01-191.09h76.44l-95.54,265.46h-90.38L1454.61,96.06z"></path>	<path class="st0" d="M1746.16,157.26c11.18-20.48,26.86-36.32,47-47.51c20.14-11.19,43.46-16.79,69.98-16.79  c26.86,0,50.53,5.25,71.01,15.75c20.48,10.51,36.49,25.31,48.03,44.42c11.53,19.11,17.47,41.58,17.82,67.4  c0,9.3-0.7,17.56-2.07,24.79h-192.64v2.07c1.72,19.29,7.92,34.43,18.59,45.45c10.67,11.02,25.31,16.53,43.9,16.53  c14.8,0,27.11-3.18,36.93-9.55c9.81-6.37,16.27-15.75,19.37-28.15h71.79c-2.76,17.56-9.47,33.4-20.14,47.51  c-10.68,14.12-24.79,25.23-42.35,33.31c-17.56,8.09-37.7,12.14-60.43,12.14c-29.62,0-55.18-5.5-76.69-16.53  c-21.52-11.02-38.05-26.77-49.58-47.26c-11.54-20.48-17.3-44.33-17.3-71.53C1729.37,201.77,1734.97,177.75,1746.16,157.26z   M1927.18,197.81c-2.41-16.18-9.04-28.66-19.88-37.44c-10.85-8.78-24.53-13.17-41.06-13.17c-15.84,0-29.18,4.57-40.03,13.69  c-10.85,9.13-17.3,21.43-19.37,36.93H1927.18z"></path>	<path class="st0" d="M12.54,289.65c8.36-8.18,18.81-12.28,31.35-12.28c12.88,0,23.51,4.1,31.87,12.28  c8.36,8.19,12.54,18.73,12.54,31.61c0,12.54-4.18,22.91-12.54,31.09c-8.36,8.19-18.99,12.28-31.87,12.28  c-12.54,0-22.99-4.09-31.35-12.28C4.18,344.17,0,333.8,0,321.26C0,308.38,4.18,297.84,12.54,289.65z"></path>	<polygon class="st0" points="82.88,179.63 82.88,64.56 82.88,0 5.41,0 5.41,244.19 82.88,244.19  "></polygon>	<path class="st0" d="M269.09,56.81c-10.85-18.25-26.17-32.28-45.96-42.09C203.32,4.91,180.51,0,154.69,0h-35.61v64.56h28.38  c18.25,0,32.71,5,43.38,14.98c10.67,9.99,16.01,25.61,16.01,42.82c0,16.87-5.34,32.32-16.01,42.3  c-10.68,9.99-25.14,14.98-43.38,14.98h-28.38v64.56h35.61c25.82,0,48.63-4.91,68.43-14.72c19.79-9.81,35.12-23.76,45.96-41.83  c10.85-18.08,16.27-41.18,16.27-65.28C285.35,98.26,279.93,75.06,269.09,56.81z"></path></g></svg>