<svg xmlns="http://www.w3.org/2000/svg" xmlns:xlink="http://www.w3.org/1999/xlink" width="36.033" height="36.033" viewBox="0 0 36.033 36.033"><defs><linearGradient id="linear-gradient" x1="0.266" y1="0.898" x2="1.047" y2="0.108" gradientUnits="objectBoundingBox"><stop offset="0" stop-color="#00ceb5"></stop><stop offset="1" stop-color="#effcfb"></stop></linearGradient></defs><g id="supply-chain-box-icon" transform="translate(-3 -3)"><path id="Path_32" data-name="Path 32" d="M39.033,21.017A18.017,18.017,0,1,1,21.017,3,18.017,18.017,0,0,1,39.033,21.017Z" transform="translate(0 0)" fill="url(#linear-gradient)"></path><g id="box" transform="translate(12.396 12.456)"><path id="Path_4346" data-name="Path 4346" fill="none"></path><path id="Path_4347" data-name="Path 4347" fill="none"></path><path id="Path_4348" data-name="Path 4348" d="M7.568,142.975.222,139.882A.16.16,0,0,0,0,140.03V148.3a.511.511,0,0,0,.321.474l7.125,2.85a.16.16,0,0,0,.219-.148v-8.352A.16.16,0,0,0,7.568,142.975Z" transform="translate(0 -134.514)" fill="#fff"></path><path id="Path_4349" data-name="Path 4349" d="M36.007,10.348l7.1-2.99a.16.16,0,0,0,.006-.292L36.161,3.822a.511.511,0,0,0-.432,0L28.777,7.066a.16.16,0,0,0,.006.292l7.1,2.99A.159.159,0,0,0,36.007,10.348Z" transform="translate(-27.769 -3.654)" fill="#fff"></path><path id="Path_4350" data-name="Path 4350" d="M272,143.123v8.352a.16.16,0,0,0,.219.148l7.125-2.85a.511.511,0,0,0,.321-.474V140.03a.16.16,0,0,0-.222-.147l-7.346,3.093A.16.16,0,0,0,272,143.123Z" transform="translate(-262.424 -134.514)" fill="#fff"></path></g></g></svg>