<svg xmlns="http://www.w3.org/2000/svg" width="131.93" height="35.488" viewBox="0 0 131.93 35.488"><g id="werk1-seeklogo.com" transform="translate(-20.4 -241.2)"><path id="Path_4776" data-name="Path 4776" d="M25.325,258l4.288,15.59c.088.4.22.9.352,1.517.154.616.286,1.253.418,1.935s.264,1.341.374,2.023.22,1.275.308,1.825h.088c.088-.55.2-1.143.308-1.825s.264-1.341.4-2.023c.154-.682.308-1.319.44-1.913.154-.594.286-1.121.4-1.539L37.2,258h4.6L46.3,273.5a15.091,15.091,0,0,1,.4,1.5q.231.956.462,1.979c.154.682.286,1.385.418,2.089s.242,1.319.33,1.825H48c.088-.55.2-1.143.33-1.8s.264-1.319.4-2,.286-1.319.418-1.957c.154-.638.286-1.165.4-1.627L53.58,258H58.44l-7.982,28.387H45.423l-4.112-15.194c-.33-1.253-.638-2.463-.924-3.606s-.594-2.4-.924-3.738h-.088c-.33,1.341-.638,2.573-.9,3.694s-.572,2.287-.9,3.562l-4.068,15.282H28.558L20.4,258Z" transform="translate(0 -13.106)" fill="#fff"></path><path id="Path_4777" data-name="Path 4777" d="M200.5,258h17.591v3.87H205.337V269.7H216.9v3.848H205.337V282.5h12.885v3.892H200.5Z" transform="translate(-140.499 -13.106)" fill="#fff"></path><path id="Path_4778" data-name="Path 4778" d="M294,258h9.785a11.1,11.1,0,0,1,3.98.66,8.04,8.04,0,0,1,2.9,1.8,7.57,7.57,0,0,1,1.759,2.727,9.692,9.692,0,0,1,.594,3.43,8.229,8.229,0,0,1-.506,2.968,7.915,7.915,0,0,1-1.341,2.265,9.367,9.367,0,0,1-1.825,1.671,10.334,10.334,0,0,1-2.045,1.1l7.3,11.764H309.15l-6.267-10.906h-4.2v10.906H294Zm4.684,13.655h3.056a10.9,10.9,0,0,0,2.485-.264,5.754,5.754,0,0,0,1.979-.858,3.988,3.988,0,0,0,1.319-1.517,4.939,4.939,0,0,0,.484-2.221,4.7,4.7,0,0,0-1.451-3.76A6.171,6.171,0,0,0,302.4,261.8h-3.738v9.851Z" transform="translate(-213.44 -13.106)" fill="#fff"></path><path id="Path_4779" data-name="Path 4779" d="M396,286.387V258h4.837v12.511L412.052,258h5.981l-11.346,12.511,12.248,15.876h-6.025l-9.7-12.709-2.375,2.573v10.137Z" transform="translate(-293.012 -13.106)" fill="#fff"></path><rect id="Rectangle_275" data-name="Rectangle 275" width="6.706" height="6.706" transform="translate(131.243 269.983)" fill="#fff"></rect><rect id="Rectangle_276" data-name="Rectangle 276" width="6.706" height="6.706" transform="translate(138.456 269.983)" fill="#fff"></rect><rect id="Rectangle_277" data-name="Rectangle 277" width="6.706" height="6.706" transform="translate(138.456 262.837)" fill="#fff"></rect><rect id="Rectangle_278" data-name="Rectangle 278" width="6.706" height="6.706" transform="translate(145.624 269.983)" fill="#fff"></rect><rect id="Rectangle_279" data-name="Rectangle 279" width="6.706" height="6.706" transform="translate(138.456 255.602)" fill="#fff"></rect><rect id="Rectangle_280" data-name="Rectangle 280" width="6.706" height="6.706" transform="translate(138.456 248.434)" fill="#fff"></rect><rect id="Rectangle_281" data-name="Rectangle 281" width="6.706" height="6.706" transform="translate(131.243 248.434)" fill="#fff"></rect><rect id="Rectangle_282" data-name="Rectangle 282" width="6.706" height="6.706" transform="translate(138.456 241.2)" fill="#fff"></rect></g></svg>