<svg xmlns="http://www.w3.org/2000/svg" width="200.791" height="26.987" viewBox="0 0 200.791 26.987"><g id="weXelerate" transform="translate(-36.3 -36.8)"><path id="Path_4707" data-name="Path 4707" d="M57.517,87.445h-.083L53.712,73.3H49.121L45.254,87.445h-.083L41.139,73.3H36.3l6.39,18.922h4.8L51.293,78.18h.062L55.2,92.222h4.674L66.348,73.3H61.715Z" transform="translate(0 -28.952)" fill="#fff" fill-rule="evenodd"></path><path id="Path_4708" data-name="Path 4708" d="M191.588,70.8a9.676,9.676,0,0,0-9.988,9.988c0,5.811,3.64,9.947,10.112,9.947,4.508,0,8.355-2.316,9.347-6.452h-4.322c-.807,2.089-2.4,3.143-5.025,3.143-3.805,0-5.563-2.626-5.563-5.6h15.179A9.573,9.573,0,0,0,191.588,70.8Zm-5.439,8.313a5.324,5.324,0,0,1,10.629,0Z" transform="translate(-115.252 -26.969)" fill="#fff" fill-rule="evenodd"></path><path id="Path_4709" data-name="Path 4709" d="M452.688,70.9a9.676,9.676,0,0,0-9.988,9.988c0,5.811,3.64,9.947,10.112,9.947,4.508,0,8.355-2.316,9.347-6.452h-4.322c-.807,2.089-2.4,3.143-5.025,3.143-3.805,0-5.542-2.626-5.542-5.6h15.179A9.59,9.59,0,0,0,452.688,70.9Zm-5.418,8.293a5.324,5.324,0,0,1,10.629,0Z" transform="translate(-322.357 -27.048)" fill="#fff" fill-rule="evenodd"></path><rect id="Rectangle_268" data-name="Rectangle 268" width="4.55" height="24.96" transform="translate(143.256 38.31)" fill="#fff"></rect><path id="Path_4710" data-name="Path 4710" d="M599.288,70.9a9.676,9.676,0,0,0-9.988,9.988c0,5.811,3.64,9.947,10.112,9.947,4.508,0,8.355-2.316,9.347-6.452h-4.322c-.807,2.089-2.4,3.143-5.025,3.143-3.805,0-5.563-2.626-5.563-5.6h15.179A9.564,9.564,0,0,0,599.288,70.9Zm-5.439,8.293a5.324,5.324,0,0,1,10.629,0Z" transform="translate(-438.641 -27.048)" fill="#fff" fill-rule="evenodd"></path><path id="Path_4711" data-name="Path 4711" d="M850.382,44.1h-4.55v6.039H842.4v3.1h3.433V64.408c.083,3.143.951,4.839,5.708,4.839.993,0,1.965-.145,2.957-.227V65.793a8.618,8.618,0,0,1-1.923.145c-2.047,0-2.192-.869-2.192-2.606V53.261H853.9v-3.1h-3.516Z" transform="translate(-639.4 -5.79)" fill="#fff" fill-rule="evenodd"></path><path id="Path_4712" data-name="Path 4712" d="M921.388,70.9a9.676,9.676,0,0,0-9.988,9.988c0,5.811,3.64,9.947,10.112,9.947,4.508,0,8.355-2.316,9.347-6.452h-4.322c-.807,2.089-2.4,3.143-5.025,3.143-3.805,0-5.563-2.626-5.563-5.6h15.179A9.564,9.564,0,0,0,921.388,70.9Zm-5.439,8.293a5.324,5.324,0,0,1,10.629,0Z" transform="translate(-694.131 -27.048)" fill="#fff" fill-rule="evenodd"></path><path id="Path_4713" data-name="Path 4713" d="M710.518,71a11.408,11.408,0,0,0-1.716-.1c-2.792,0-5.521,2.151-6.039,4.177h-.083V71.4H698.4V90.318h4.549v-9c0-4.177,2.482-6.473,5.584-6.473a15.78,15.78,0,0,1,1.965.186V71Z" transform="translate(-525.179 -27.048)" fill="#fff" fill-rule="evenodd"></path><path id="Path_4714" data-name="Path 4714" d="M764.205,86.023v-9.74c0-3.991-4.239-5.5-8.272-5.5a46.9,46.9,0,0,0-4.86.124V74.96c.807-.579,3.247-.682,4.632-.682,1.84,0,4.239.207,4.239,2.378,0,2.461-3.309,2.047-6.576,2.585-3.826.393-7.569,1.261-7.569,5.976,0,3.7,3.35,5.521,7.072,5.521a11.209,11.209,0,0,0,7.155-2.316c.352,1.716,1.675,2.316,3.516,2.316a11.936,11.936,0,0,0,2.875-.476v-2.9a6.106,6.106,0,0,1-1.117.083C764.453,87.45,764.205,87.037,764.205,86.023Zm-4.55-2.171c0,2.626-3.123,3.578-5.108,3.578-1.592,0-4.2-.558-4.2-2.42,0-2.192,1.758-2.854,3.722-3.143,2.006-.331,4.2-.29,5.584-1.137Z" transform="translate(-562.777 -26.951)" fill="#fff" fill-rule="evenodd"></path><path id="Path_4715" data-name="Path 4715" d="M311.963,36.8h-4.55l-8.706,10.485-1.551-1.861,7.155-8.623h-4.55l-4.88,5.894L290,36.8h-4.55l7.155,8.623-1.551,1.861L282.35,36.8H277.8l10.981,13.235L277.8,63.27h4.55l8.706-10.485,1.551,1.861-7.155,8.623H290l4.88-5.894,4.88,5.894h4.55l-7.155-8.623,1.551-1.861,8.706,10.485h4.55L300.982,50.035ZM294.882,51.9l-1.551-1.861,1.551-1.861,1.551,1.861Z" transform="translate(-191.558)" fill="#fff"></path></g></svg>