<svg xmlns="http://www.w3.org/2000/svg" width="147.801" height="59.796" viewBox="0 0 147.801 59.796"><g id="AWS" transform="translate(-109.199)"><path id="Path_4745" data-name="Path 4745" d="M101.1,8.629c.113-2.109,1.589-3.009,3.642-3.009,1.589,0,3.319.492,3.319,2.9v4.767a.591.591,0,0,0,.647.661,1.308,1.308,0,0,0,.352,0v.914a2.883,2.883,0,0,1-.717,0c-1.125,0-1.294-.619-1.294-1.575h0a3.431,3.431,0,0,1-3.277,1.842c-1.659,0-3.024-.816-3.024-2.63,0-2.531,2.461-2.616,4.824-2.9.914-.113,1.406-.225,1.406-1.223,0-1.406-1.069-1.856-2.363-1.856a2.123,2.123,0,0,0-2.4,2.1Zm5.864,1.322h0c-.127.267-.619.352-.914.408-1.87.338-4.219.309-4.219,2.081a1.87,1.87,0,0,0,2.011,1.772A2.9,2.9,0,0,0,106.98,11.4Z" transform="translate(40.934 2.283)" fill="#fff"></path><path id="Path_4746" data-name="Path 4746" d="M114.806,14.8h-1V13.183h0a3.361,3.361,0,0,1-3.108,1.884c-2.264,0-3.15-1.322-3.15-3.417V5.8h1.1v5.906c0,1.617.661,2.475,2.4,2.475s2.7-1.772,2.7-3.614V5.8h1.1Z" transform="translate(43.697 2.356)" fill="#fff"></path><path id="Path_4747" data-name="Path 4747" d="M119.829,8.523c0-1.406-1.1-1.969-2.363-1.969-.97,0-2.124.38-2.124,1.547s1.111,1.322,1.87,1.519l1.406.323a2.644,2.644,0,0,1,2.559,2.489c0,1.955-1.927,2.714-3.614,2.714a3.263,3.263,0,0,1-3.684-3.178h1.1a2.363,2.363,0,0,0,2.644,2.25c1.027,0,2.461-.45,2.461-1.7s-.984-1.406-1.969-1.645l-1.406-.309c-1.406-.394-2.5-.872-2.5-2.419,0-1.828,1.8-2.517,3.375-2.517a2.953,2.953,0,0,1,3.3,2.9Z" transform="translate(46.269 2.277)" fill="#fff"></path><path id="Path_4748" data-name="Path 4748" d="M122.292,6.58h1.828v.928h-1.828v6.075c0,.7.1,1.125.886,1.181a7.031,7.031,0,0,0,.942,0v.942h-.984c-1.406,0-1.969-.492-1.941-2.025V7.508H119.62V6.58H121.2V3.88h1.1Z" transform="translate(48.601 1.576)" fill="#fff"></path><path id="Path_4749" data-name="Path 4749" d="M123.918,5.835h1.013V7.945h0a3.347,3.347,0,0,1,3.4-2.222v1.1a3.094,3.094,0,0,0-3.347,3.22v4.8h-1.1Z" transform="translate(50.336 2.321)" fill="#fff"></path><path id="Path_4750" data-name="Path 4750" d="M128,3.35h1.111V5.108H128ZM128,6.8h1.111v9H128Z" transform="translate(52.005 1.361)" fill="#fff"></path><path id="Path_4751" data-name="Path 4751" d="M130.357,8.629c.1-2.109,1.589-3.009,3.642-3.009,1.589,0,3.319.492,3.319,2.9v4.767a.577.577,0,0,0,.647.661,1.209,1.209,0,0,0,.338,0v.914a2.813,2.813,0,0,1-.717,0c-1.111,0-1.28-.619-1.28-1.575h0a3.4,3.4,0,0,1-3.277,1.842c-1.659,0-3.009-.816-3.009-2.63,0-2.531,2.447-2.616,4.824-2.9.914-.113,1.406-.225,1.406-1.223,0-1.406-1.055-1.856-2.349-1.856a2.123,2.123,0,0,0-2.4,2.1Zm5.85,1.322h0c-.141.267-.633.352-.928.408-1.856.338-4.219.309-4.219,2.081a1.87,1.87,0,0,0,2,1.772,2.883,2.883,0,0,0,3.136-2.813Z" transform="translate(52.826 2.283)" fill="#fff"></path><path id="Path_4752" data-name="Path 4752" d="M77.65,18.72h1.167l2.306,7.706h.028l2.194-7.706h1.238l2.194,7.706h.042l2.306-7.706h1.167l-2.9,9H86.186l-2.208-7.566H83.95L81.742,27.72h-1.2Z" transform="translate(31.549 7.606)" fill="#fff"></path><path id="Path_4753" data-name="Path 4753" d="M87.6,16.27h1.111v1.758H87.6Zm0,3.445h1.111v9H87.6Z" transform="translate(35.591 6.61)" fill="#fff"></path><path id="Path_4754" data-name="Path 4754" d="M89.948,18.76h1.013v2.109h0a3.319,3.319,0,0,1,3.4-2.236v1.1a3.108,3.108,0,0,0-3.347,3.234v4.8h-1.1Z" transform="translate(36.534 7.566)" fill="#fff"></path><path id="Path_4755" data-name="Path 4755" d="M96.318,19.5H98.16v.928H96.318v6.061c0,.717.113,1.139.9,1.2h.942v.942h-.984c-1.406,0-1.969-.478-1.955-2.025V20.428H93.66V19.5h1.561V16.8h1.1Z" transform="translate(38.053 6.826)" fill="#fff"></path><path id="Path_4756" data-name="Path 4756" d="M103.5,21.433a2.081,2.081,0,0,0-2.363-1.969c-.97,0-2.124.38-2.124,1.547s1.111,1.336,1.87,1.519l1.406.338a2.644,2.644,0,0,1,2.559,2.489c0,1.955-1.927,2.7-3.614,2.7a3.249,3.249,0,0,1-3.684-3.164h1.1a2.363,2.363,0,0,0,2.644,2.25c1.027,0,2.461-.45,2.461-1.716,0-1.041-.97-1.406-1.969-1.631l-1.406-.323c-1.406-.38-2.5-.872-2.5-2.4,0-1.828,1.8-2.531,3.375-2.531a2.953,2.953,0,0,1,3.3,2.9Z" transform="translate(39.634 7.523)" fill="#fff"></path><path id="Path_4757" data-name="Path 4757" d="M110.444,21.627a2.461,2.461,0,0,0-2.545-2.166c-2.109,0-3.164,1.927-3.164,3.839s1.055,3.839,3.164,3.839a2.686,2.686,0,0,0,2.616-2.559h1.1a3.656,3.656,0,0,1-3.713,3.474c-2.813,0-4.219-2.18-4.219-4.753s1.5-4.767,4.219-4.767a3.375,3.375,0,0,1,3.642,3.094Z" transform="translate(42.124 7.525)" fill="#fff"></path><path id="Path_4758" data-name="Path 4758" d="M110.528,16.27h1.1v5.006h0a3.066,3.066,0,0,1,2.813-1.828c2.517,0,3.291,1.336,3.291,3.474v5.794h-1.1V23.091c0-1.561-.506-2.728-2.292-2.728a2.813,2.813,0,0,0-2.813,3.094V28.7h-1.1Z" transform="translate(44.867 6.61)" fill="#fff"></path><path id="Path_4759" data-name="Path 4759" d="M117.3,21.554c.1-2.109,1.575-3.024,3.642-3.024,1.589,0,3.3.492,3.3,2.9v4.8a.591.591,0,0,0,.647.661.872.872,0,0,0,.352-.07v.928a2.813,2.813,0,0,1-.717.07c-1.111,0-1.294-.633-1.294-1.575h0a3.431,3.431,0,0,1-3.361,1.814c-1.659,0-3.024-.816-3.024-2.63,0-2.517,2.461-2.616,4.838-2.9.9-.1,1.406-.225,1.406-1.209,0-1.491-1.055-1.856-2.349-1.856a2.116,2.116,0,0,0-2.4,2.1Zm5.85,1.322h0c-.141.267-.633.352-.928.408-1.87.323-4.219.309-4.219,2.067a1.884,1.884,0,0,0,2.011,1.786,2.9,2.9,0,0,0,3.136-2.813Z" transform="translate(47.475 7.529)" fill="#fff"></path><path id="Path_4760" data-name="Path 4760" d="M127.4,20.644H125.63v8.072h-1.111V20.644H123v-.928h1.519V18.9c0-1.561.422-2.63,2.18-2.63a5.358,5.358,0,0,1,.928.07V17.3a4.219,4.219,0,0,0-.8-.1c-1.223,0-1.181.773-1.2,1.744v.788H127.4Z" transform="translate(49.974 6.61)" fill="#fff"></path><path id="Path_4761" data-name="Path 4761" d="M129.362,19.5h1.828v.928h-1.828v6.061c0,.717.1,1.139.886,1.2h.942v.942h-.984c-1.406,0-1.969-.478-1.941-2.025V20.428H126.69V19.5h1.575V16.8h1.1Z" transform="translate(51.473 6.826)" fill="#fff"></path><path id="Path_4762" data-name="Path 4762" d="M136.529,21.433a2.081,2.081,0,0,0-2.348-1.969c-.984,0-2.138.38-2.138,1.547s1.125,1.336,1.87,1.519l1.406.338a2.644,2.644,0,0,1,2.559,2.489c0,1.955-1.927,2.7-3.6,2.7a3.249,3.249,0,0,1-3.7-3.164h1.1a2.377,2.377,0,0,0,2.658,2.25c1.027,0,2.447-.45,2.447-1.716,0-1.041-.97-1.406-1.969-1.631l-1.406-.323c-1.406-.38-2.517-.872-2.517-2.4,0-1.828,1.8-2.531,3.389-2.531a2.939,2.939,0,0,1,3.291,2.9Z" transform="translate(53.054 7.523)" fill="#fff"></path><path id="Path_4763" data-name="Path 4763" d="M104.019,33.889a2.067,2.067,0,0,0-2.348-1.969c-.984,0-2.124.394-2.124,1.561S100.658,34.8,101.4,35l1.406.323c1.266.2,2.574.928,2.574,2.489,0,1.955-1.941,2.714-3.614,2.714a3.263,3.263,0,0,1-3.7-3.178h1.1a2.391,2.391,0,0,0,2.658,2.25c1.027,0,2.461-.45,2.461-1.716,0-1.041-.984-1.406-1.969-1.631l-1.406-.323c-1.406-.38-2.517-.858-2.517-2.4,0-1.828,1.8-2.517,3.389-2.517a2.939,2.939,0,0,1,3.291,2.813Z" transform="translate(39.845 12.589)" fill="#fff"></path><path id="Path_4764" data-name="Path 4764" d="M105.317,36.049a3.192,3.192,0,0,0,2.967,3.544,2.728,2.728,0,0,0,2.813-2.306h1.111a3.684,3.684,0,0,1-3.924,3.234c-2.813,0-4.064-2.194-4.064-4.767S105.317,31,108.242,31s4.036,2.517,3.952,5.049Zm5.822-.914a3.038,3.038,0,0,0-2.813-3.22,3.192,3.192,0,0,0-3.009,3.22Z" transform="translate(42.344 12.595)" fill="#fff"></path><path id="Path_4765" data-name="Path 4765" d="M111.112,31.216h1v2.109h0a3.319,3.319,0,0,1,3.4-2.222v1.1a3.08,3.08,0,0,0-3.347,3.22v4.8h-1.1Z" transform="translate(45.127 12.633)" fill="#fff"></path><path id="Path_4766" data-name="Path 4766" d="M114.79,31.18h1.223l2.827,7.9h.028l2.784-7.9h1.139l-3.361,9h-1.167Z" transform="translate(46.638 12.668)" fill="#fff"></path><path id="Path_4767" data-name="Path 4767" d="M121.39,28.73h1.1v1.786h-1.1Zm0,3.445h1.1v9h-1.1Z" transform="translate(49.32 11.673)" fill="#fff"></path><path id="Path_4768" data-name="Path 4768" d="M130.214,34.082a2.461,2.461,0,0,0-2.545-2.166c-2.109,0-3.164,1.927-3.164,3.839s1.055,3.839,3.164,3.839a2.686,2.686,0,0,0,2.616-2.559h1.1a3.67,3.67,0,0,1-3.713,3.488c-2.813,0-4.219-2.18-4.219-4.767S124.955,31,127.669,31a3.375,3.375,0,0,1,3.586,3.08Z" transform="translate(50.157 12.593)" fill="#fff"></path><path id="Path_4769" data-name="Path 4769" d="M131.071,36.049a3.192,3.192,0,0,0,2.967,3.544,2.813,2.813,0,0,0,2.813-2.306h1.1a3.684,3.684,0,0,1-3.924,3.234c-2.813,0-4.064-2.194-4.064-4.767S131.155,31,134.024,31s4.036,2.517,3.952,5.049Zm5.822-.914a3.038,3.038,0,0,0-2.813-3.22,3.192,3.192,0,0,0-2.967,3.22Z" transform="translate(52.802 12.595)" fill="#fff"></path><g id="Group_227" data-name="Group 227"><path id="Path_4770" data-name="Path 4770" d="M200.026,29.9A29.9,29.9,0,1,1,170.128,0a29.9,29.9,0,0,1,29.9,29.9" transform="translate(56.974)" fill="#fff"></path><path id="Path_4771" data-name="Path 4771" d="M147.56,20.715a3.46,3.46,0,0,1,1.744-3A7.355,7.355,0,0,1,152.862,17c2.644,0,5.2.577,5.2,3.741v4.838a6.385,6.385,0,0,0,.436,2.813h-3.685a4.387,4.387,0,0,1-.211-1.055,5.035,5.035,0,0,1-3.685,1.406c-2.138,0-3.811-1.069-3.811-3.375,0-3.642,3.966-3.361,6.5-3.881.633-.127.97-.338.97-1.027s-1.013-1.167-1.758-1.167a1.659,1.659,0,0,0-1.842,1.406Zm4.739,5.794c1.744,0,2.32-1,2.236-3.3a10.069,10.069,0,0,1-2.264.6c-.816.2-1.5.534-1.5,1.406s.717,1.28,1.533,1.28" transform="translate(59.77 6.904)" fill="#00ceb5"></path><path id="Path_4772" data-name="Path 4772" d="M169.733,28.37h-3.7l-1.772-7.439h-.042l-1.744,7.439h-3.7L155.29,17.19h3.7l1.87,7.228h.042l1.6-7.228h3.488l1.631,7.214h.042l1.828-7.214h3.727Z" transform="translate(63.093 6.984)" fill="#00ceb5"></path><path id="Path_4773" data-name="Path 4773" d="M171.589,24.779a1.5,1.5,0,0,0,.6,1.238,2.194,2.194,0,0,0,1.406.394c.717,0,1.73-.309,1.73-1.181s-1.139-1.041-1.786-1.181c-2.306-.591-5.189-.647-5.189-3.67,0-2.686,2.9-3.417,5.1-3.417,2.447,0,5.006.7,5.147,3.614h-3.389a1.041,1.041,0,0,0-.478-.97,2.1,2.1,0,0,0-1.153-.281c-.6,0-1.575.07-1.575.844,0,1.055,2.447,1.252,4.135,1.617a3.15,3.15,0,0,1,2.813,3.009c0,3-2.813,3.98-5.358,3.98s-5.372-.872-5.47-3.994Z" transform="translate(68.31 6.891)" fill="#00ceb5"></path></g></g></svg>