<svg xmlns="http://www.w3.org/2000/svg" width="81" height="51" viewBox="0 0 81 51" fill="none"><path fill-rule="evenodd" clip-rule="evenodd" d="M38.2664 0.00744184C38.9934 0.0210945 39.7952 0.075705 40.1689 0.143968C40.5222 0.198579 41.1677 0.341931 41.5957 0.457978C42.0238 0.574026 42.6488 0.778815 42.9886 0.908515C43.3283 1.04504 43.8718 1.29079 44.2116 1.46145C44.5513 1.6321 45.0201 1.8915 45.2647 2.04168C45.5093 2.19869 45.9985 2.53318 46.3518 2.7994C46.7051 3.0588 47.3506 3.63221 47.7854 4.06227C48.2135 4.49916 48.7502 5.09987 48.9812 5.40023C49.2055 5.70059 49.5316 6.16478 49.7014 6.42418C49.8713 6.68358 50.1906 7.27064 50.4149 7.72118C50.6391 8.17171 50.9176 8.82021 51.0399 9.1547C51.1554 9.48919 51.3253 10.0285 51.4136 10.3493C51.502 10.6701 51.6039 11.1139 51.6446 11.3391C51.6854 11.5644 51.7534 11.9944 51.7873 12.2948C51.8281 12.5952 51.8553 13.3461 51.8621 13.9673C51.8621 14.6431 51.8145 15.394 51.7534 15.8445C51.6922 16.2609 51.5563 16.964 51.4408 17.4145C51.3321 17.8651 51.1011 18.5887 50.9312 19.0187C50.7614 19.4488 50.4624 20.0973 50.279 20.4522C50.0887 20.8072 49.7694 21.3465 49.5724 21.6469C49.3753 21.9472 49.0356 22.4046 48.8318 22.6708C48.6211 22.937 48.2882 23.3193 48.0912 23.5241C47.8873 23.7289 47.5612 24.0565 47.3642 24.2409C47.1603 24.432 46.8002 24.7392 46.5556 24.9303C46.311 25.1283 45.8558 25.4491 45.5365 25.6607C45.2171 25.8655 44.6192 26.2068 44.2116 26.4184C43.8039 26.6301 43.172 26.9031 42.8187 27.0396C42.4654 27.1693 41.8199 27.3673 41.3919 27.4765C40.9638 27.5857 40.2436 27.7291 39.7952 27.7837C39.3468 27.8451 38.5586 27.8929 38.0422 27.8929C37.5326 27.8929 36.8124 27.8588 36.4455 27.8178C36.0854 27.7837 35.4332 27.6677 35.0051 27.5789C34.5771 27.4834 33.9656 27.3127 33.6462 27.2103C33.3269 27.1011 32.8377 26.9236 32.5591 26.8007C32.2806 26.6847 31.7574 26.4321 31.4041 26.241C31.0508 26.0498 30.548 25.7495 30.283 25.572C30.018 25.3945 29.6104 25.0873 29.3658 24.8894C29.1212 24.6982 28.6727 24.2955 28.3602 23.9951C28.0544 23.7016 27.803 23.4285 27.803 23.3876C27.803 23.3466 27.9729 23.2442 28.1767 23.1486C28.3806 23.0531 28.7882 22.9165 29.0736 22.8415C29.3658 22.7732 29.9569 22.6571 30.3849 22.5889C30.9081 22.5138 31.5604 22.4728 32.3553 22.4728C33.0483 22.4797 33.9384 22.5274 34.4955 22.5957C35.0187 22.664 36.2689 22.8346 37.2812 22.978C38.2936 23.1282 39.4826 23.2852 39.9311 23.3261C40.3795 23.3671 41.0182 23.3807 41.3579 23.3603C41.6976 23.333 42.18 23.2647 42.445 23.2101C42.71 23.1486 43.1924 22.9712 43.5321 22.8142C43.8718 22.6503 44.3271 22.3841 44.5513 22.2134C44.7755 22.0428 45.1288 21.7219 45.3326 21.5035C45.5365 21.2782 45.8898 20.8072 46.1072 20.4522C46.3314 20.0973 46.5964 19.6058 46.7051 19.36C46.8206 19.1143 47.0109 18.6091 47.3642 17.5511L47.0788 17.4691C46.9225 17.4214 46.7934 17.3872 46.7934 17.4009C46.7934 17.4077 46.7187 17.5511 46.6304 17.7217C46.542 17.8924 46.3586 18.1996 46.2295 18.4044C46.0936 18.6091 45.6792 19.087 45.3055 19.4693C44.694 20.0768 44.5377 20.1928 43.9058 20.5069C43.5117 20.698 42.9954 20.9028 42.7508 20.9642C42.5062 21.0257 41.9558 21.1076 41.5278 21.1417C41.0182 21.1827 40.2572 21.1827 39.3196 21.1349C38.5382 21.0939 37.3764 21.0325 36.7377 20.9915C36.099 20.9506 35.0051 20.9301 34.2917 20.9369C33.4968 20.9506 33.0076 20.9301 33.0211 20.8891C33.0347 20.855 35.5759 17.435 38.6605 13.2914C41.752 9.14787 44.2999 5.71424 44.3339 5.65963C44.3746 5.58454 43.2128 5.57089 30.0248 5.60502L29.4881 7.72118C29.1959 8.88847 28.9785 9.85781 29.0056 9.88512C29.0328 9.9056 29.1687 9.94655 29.2978 9.97386C29.5356 10.0216 29.5356 10.0216 29.8821 9.44823C30.0724 9.14105 30.4257 8.68369 30.6635 8.43794C30.9353 8.15806 31.2614 7.91231 31.54 7.76896C31.7914 7.64609 32.2602 7.48908 32.6271 7.41399C32.9804 7.34573 33.6055 7.25699 34.0199 7.22285C34.4344 7.18872 35.5826 7.15459 36.5814 7.14776C37.587 7.14776 38.4159 7.16142 38.4295 7.19555C38.4431 7.22285 38.117 7.68704 37.7093 8.23315C37.2948 8.77925 36.398 9.95338 35.7253 10.8476C35.0459 11.7487 33.9656 13.1754 33.3201 14.0219C32.6814 14.8752 31.7098 16.1585 31.1731 16.8684C30.6295 17.5784 29.7123 18.7935 29.1279 19.5648C28.5504 20.3362 27.8166 21.2919 27.5109 21.6946C27.2051 22.0974 26.9334 22.4114 26.8994 22.3909C26.8722 22.3773 26.6548 22.0633 26.417 21.7015C26.1792 21.3328 25.8462 20.7731 25.6764 20.4522C25.5065 20.1314 25.228 19.517 25.0581 19.087C24.8882 18.6569 24.6708 18.0084 24.5757 17.6535C24.4806 17.2985 24.3447 16.6363 24.2699 16.1858C24.1952 15.7353 24.1137 14.9844 24.0933 14.5134C24.0661 14.015 24.0865 13.2914 24.1273 12.7726C24.1748 12.2812 24.2699 11.5917 24.3447 11.2367C24.4194 10.8818 24.5553 10.3083 24.6504 9.97386C24.7456 9.63937 24.9426 9.06596 25.0853 8.71099C25.2347 8.35602 25.5269 7.74165 25.7375 7.34573C25.9482 6.9498 26.2539 6.431 26.417 6.18525C26.58 5.93951 26.8858 5.5231 27.0896 5.2637C27.3003 5.0043 27.7487 4.49916 28.0952 4.14419C28.4417 3.79605 28.9649 3.31138 29.2638 3.06563C29.5628 2.82671 30.0044 2.49905 30.249 2.33521C30.4936 2.17138 30.9013 1.91198 31.1663 1.7618C31.4313 1.61163 31.9205 1.36588 32.2534 1.2157C32.5863 1.06552 33.1435 0.847078 33.4764 0.731031C33.8093 0.608157 34.3189 0.457978 34.5975 0.389715C34.876 0.314626 35.4264 0.212231 35.8204 0.150794C36.2145 0.0893576 36.6426 0.0279208 36.7717 0.0142682C36.9008 0.000615528 37.5734 -0.00621078 38.2664 0.00744184V0.00744184ZM79.5086 32.1935C79.7192 32.1935 79.9978 32.2481 80.154 32.3232C80.3035 32.3915 80.5209 32.5485 80.6364 32.6782C80.7451 32.8079 80.881 33.0331 80.9286 33.1833C80.9829 33.3335 81.0101 33.627 80.9965 33.8386C80.9761 34.1049 80.9082 34.3097 80.7655 34.5486C80.6228 34.7875 80.4666 34.9309 80.222 35.0537C79.9638 35.1903 79.7871 35.2312 79.4746 35.2244C79.23 35.2244 78.9718 35.1698 78.8291 35.1015C78.7 35.0333 78.5166 34.9104 78.435 34.8285C78.3467 34.7534 78.2176 34.5759 78.1497 34.4462C78.0817 34.3165 78.007 34.0844 77.9866 33.9342C77.9594 33.784 77.973 33.5246 78.007 33.354C78.0478 33.1833 78.1633 32.9307 78.2584 32.7942C78.3603 32.6509 78.5913 32.4666 78.7883 32.3642C79.0397 32.2413 79.2436 32.1935 79.5086 32.1935V32.1935ZM78.435 33.0468C78.3059 33.2721 78.2856 33.4018 78.2992 33.7704C78.3127 34.1322 78.3535 34.2619 78.503 34.4667C78.6117 34.6032 78.7951 34.7739 78.9107 34.8353C79.0397 34.9036 79.2911 34.9513 79.5086 34.9513C79.7735 34.9582 79.9502 34.9104 80.1201 34.8148C80.2491 34.7329 80.4258 34.5622 80.5073 34.4394C80.5889 34.3097 80.6772 34.0707 80.7044 33.9001C80.7315 33.7089 80.718 33.4905 80.6568 33.3198C80.6093 33.1697 80.487 32.9581 80.3918 32.8488C80.2967 32.7396 80.1201 32.6099 79.9978 32.5553C79.8823 32.5075 79.6377 32.4666 79.4542 32.4666C79.2504 32.4666 79.0397 32.5212 78.8631 32.6236C78.7136 32.7123 78.5234 32.9034 78.435 33.0468V33.0468ZM7.24992 37.1767C10.1104 37.1767 12.4612 37.1972 12.4748 37.2245C12.4952 37.2586 11.8769 38.2007 11.0956 39.327C10.321 40.4533 8.58842 42.9723 7.24313 44.9246C5.89104 46.8769 4.73599 48.563 4.53216 48.8702L6.74034 48.8361C8.42536 48.8088 9.09121 48.7678 9.56003 48.6791C9.89295 48.6176 10.4229 48.4879 10.7287 48.3992C11.0412 48.3104 11.5916 48.092 11.9517 47.9145C12.3186 47.737 12.6379 47.5868 12.6651 47.5732C12.699 47.5595 12.7194 47.5937 12.7194 47.6346C12.7194 47.6824 12.5767 48.0442 12.4069 48.4401C12.237 48.8361 11.9585 49.4777 11.4625 50.5904L5.75515 50.6041C2.61613 50.6177 0.027458 50.5972 0.000280302 50.5699C-0.020103 50.5426 1.0738 48.9248 2.43268 46.9725C3.79836 45.0201 5.02815 43.2521 5.16404 43.0473C5.30672 42.8426 5.54453 42.5012 5.68721 42.2964C5.82989 42.0917 6.42101 41.2452 8.04487 38.9174L6.12205 38.9584C4.77676 38.9925 4.00899 39.0403 3.58094 39.1154C3.24122 39.1768 2.69087 39.327 2.35794 39.4431C2.01822 39.5591 1.5562 39.7366 1.3184 39.8458C1.0738 39.9619 0.883555 40.0165 0.863171 39.9755C0.842788 39.9414 1.08059 39.3475 1.39314 38.658C1.70568 37.9754 1.97746 37.361 2.00463 37.2928C2.0454 37.1835 2.35794 37.1767 7.24992 37.1767V37.1767ZM17.0203 37.1767C18.1482 37.1767 19.0926 37.1904 19.1198 37.2177C19.1469 37.245 19.0994 37.361 19.0111 37.4771C18.9227 37.5931 18.7868 37.8184 18.7053 37.9754C18.6306 38.1392 18.5287 38.4942 18.4947 38.7604C18.4539 39.054 18.4267 40.6718 18.4335 42.706C18.4335 44.6037 18.4675 46.3922 18.5015 46.6858C18.5355 46.9725 18.6238 47.3752 18.6917 47.5732C18.7733 47.7848 18.9499 48.0579 19.1334 48.2558C19.3032 48.4333 19.609 48.6586 19.7992 48.7541C19.9963 48.8565 20.3564 48.9794 20.601 49.0272C20.8456 49.0818 21.2532 49.1228 21.5182 49.1228C21.7764 49.1228 22.1773 49.075 22.4015 49.0135C22.6257 48.9589 22.9586 48.8292 23.1421 48.7268C23.3255 48.6244 23.5973 48.406 23.7468 48.2353C23.903 48.0647 24.0933 47.778 24.1816 47.5868C24.2699 47.3889 24.3651 46.9793 24.4058 46.597C24.4534 46.1738 24.4738 44.6037 24.4602 42.1258C24.4398 38.3986 24.433 38.2962 24.2971 37.9959C24.2156 37.8252 24.0729 37.6068 23.971 37.5044C23.8759 37.3952 23.8079 37.2791 23.8283 37.245C23.8487 37.204 24.5961 37.1767 25.8666 37.1767C27.4226 37.1767 27.871 37.1972 27.871 37.2655C27.871 37.3064 27.7827 37.4429 27.6671 37.5522C27.5516 37.6614 27.3954 37.914 27.307 38.0983C27.1644 38.4328 27.1576 38.4942 27.1168 42.5695C27.0828 45.9963 27.0624 46.7813 26.9673 47.1773C26.913 47.4435 26.7975 47.8258 26.7227 48.0306C26.648 48.2353 26.4374 48.6176 26.2539 48.8838C26.0705 49.1501 25.7715 49.4914 25.5881 49.6416C25.4046 49.7986 25.0853 50.0307 24.8814 50.1604C24.6776 50.2901 24.3107 50.4744 24.0661 50.5699C23.8215 50.6723 23.3663 50.802 23.0469 50.8771C22.6053 50.9727 22.1908 51 21.2804 51C20.2748 50.9932 19.9963 50.9727 19.4799 50.8362C19.1402 50.7543 18.651 50.5836 18.3928 50.4607C18.1278 50.3447 17.7609 50.1399 17.5774 50.0102C17.3872 49.8805 17.1426 49.6825 17.0339 49.5665C16.9184 49.4573 16.7145 49.2252 16.5787 49.0545C16.4428 48.8838 16.2457 48.563 16.1302 48.3377C16.0215 48.1125 15.872 47.7438 15.8109 47.5186C15.7294 47.2455 15.675 46.7267 15.6478 45.9485C15.6206 45.3069 15.5935 43.375 15.5867 41.6479C15.5731 39.6683 15.5391 38.4055 15.4916 38.2348C15.4508 38.0846 15.3557 37.8525 15.2673 37.7228C15.1858 37.5931 15.0703 37.4429 15.0024 37.402C14.9412 37.3542 14.9072 37.2791 14.9276 37.245C14.9548 37.204 15.7226 37.1767 17.0203 37.1767V37.1767ZM58.2081 36.8832C58.541 36.9037 59.1389 36.9583 59.533 37.0197C59.927 37.0743 60.3891 37.1699 60.8918 37.3132V38.542C60.8918 39.2178 60.8715 39.7844 60.8375 39.798C60.8103 39.8185 60.654 39.7434 60.4842 39.6342C60.3143 39.5181 59.9202 39.3338 59.6009 39.2178C59.2816 39.1017 58.7992 38.9652 58.5274 38.9106C58.2624 38.856 57.7596 38.815 57.4267 38.815C57.087 38.815 56.5774 38.8628 56.2852 38.9243C55.9999 38.9857 55.5786 39.1086 55.3544 39.1973C55.1302 39.286 54.8244 39.4499 54.6682 39.5523C54.5187 39.6547 54.2605 39.8458 54.1042 39.9755C53.948 40.1052 53.6966 40.3714 53.5539 40.5557C53.4112 40.7469 53.2006 41.0814 53.0851 41.3066C52.9764 41.5319 52.8201 41.9142 52.7385 42.1599C52.6638 42.4057 52.5687 42.863 52.5279 43.1839C52.4804 43.5047 52.4668 44.0576 52.4872 44.4126C52.5143 44.7881 52.6027 45.3205 52.7046 45.6755C52.8065 46.0168 52.9967 46.5015 53.1326 46.7609C53.2685 47.0203 53.5811 47.4367 53.8257 47.6892C54.0703 47.9418 54.4372 48.2558 54.641 48.3923C54.8448 48.5357 55.2253 48.72 55.4903 48.8156C55.7485 48.9043 56.2105 49.0135 56.5095 49.0545C56.8288 49.1023 57.2772 49.1159 57.5966 49.0886C57.8955 49.0613 58.3915 48.9658 58.6973 48.877C59.0098 48.7883 59.4514 48.6244 59.6824 48.522C59.9202 48.4128 60.2871 48.2149 60.4978 48.0783C60.7152 47.9418 60.9054 47.8462 60.9258 47.8804C60.9462 47.9077 60.9598 48.4606 60.9598 50.2832L60.6337 50.3856C60.457 50.4402 59.9746 50.5631 59.5669 50.6587C59.1525 50.7543 58.3779 50.8635 57.8344 50.9113C57.0802 50.9727 56.6657 50.9727 56.0678 50.9113C55.6398 50.8703 54.9943 50.7611 54.641 50.6723C54.2877 50.5836 53.7373 50.3856 53.418 50.2355C53.0987 50.0921 52.657 49.8464 52.4328 49.6962C52.2086 49.5528 51.8281 49.2456 51.5835 49.0135C51.3389 48.7814 50.9856 48.3719 50.7953 48.092C50.6051 47.8121 50.3809 47.464 50.3061 47.3138C50.2314 47.1636 50.1023 46.8701 50.0276 46.6653C49.946 46.4605 49.8169 46.0168 49.749 45.6755C49.6539 45.2386 49.6131 44.7949 49.6131 44.1396C49.6131 43.5047 49.6539 43.0269 49.7422 42.6036C49.8102 42.2623 49.9732 41.7299 50.0955 41.409C50.2246 41.0882 50.4964 40.5694 50.7002 40.2486C50.9109 39.9277 51.2913 39.4567 51.5563 39.1905C51.8145 38.9243 52.2833 38.542 52.6027 38.3304C52.922 38.1187 53.3297 37.8662 53.5199 37.7706C53.7034 37.6819 54.1178 37.5112 54.4372 37.3952C54.7565 37.2859 55.2729 37.1426 55.5922 37.0743C55.9115 37.0129 56.4891 36.9378 56.8831 36.9105C57.2772 36.8832 57.8683 36.8695 58.2081 36.8832V36.8832ZM32.1718 37.1767C33.225 37.1767 34.6246 37.2108 35.2769 37.245C36.0107 37.2859 36.6833 37.3679 37.0231 37.4498C37.3356 37.5249 37.7637 37.675 37.9743 37.7774C38.1917 37.8798 38.5042 38.0641 38.6741 38.1802C38.844 38.2962 39.1022 38.5215 39.2584 38.6853C39.4079 38.8492 39.6117 39.1222 39.7069 39.2929C39.802 39.4635 39.9379 39.7502 39.999 39.9414C40.067 40.153 40.1077 40.508 40.1145 40.8629C40.1145 41.2793 40.067 41.5729 39.965 41.8869C39.8835 42.1326 39.7204 42.4808 39.6049 42.6651C39.4826 42.8494 39.2177 43.1566 39.0138 43.3409C38.81 43.5252 38.4431 43.7914 38.1985 43.9348C37.9539 44.0713 37.5598 44.2693 37.3152 44.358C37.0706 44.4536 36.8396 44.5423 36.7988 44.556C36.7581 44.5696 37.3288 45.3069 38.0762 46.1874C38.8576 47.1022 40.033 48.3855 40.8211 49.1774C41.9286 50.2764 42.18 50.5631 42.0849 50.6041C42.0238 50.6246 41.3851 50.6246 40.6785 50.6041C39.8903 50.5768 39.2584 50.5153 39.0478 50.4607C38.8576 50.4061 38.511 50.2286 38.2664 50.0716C38.0218 49.9078 37.5666 49.5119 37.2473 49.191C36.9279 48.8702 35.9699 47.7643 33.5715 44.8563L33.5783 46.8018C33.5783 47.8735 33.6123 48.9453 33.653 49.191C33.6938 49.4368 33.7753 49.7303 33.8297 49.8395C33.8908 49.9487 34.0267 50.1535 34.1286 50.2832C34.2374 50.4129 34.3053 50.5426 34.2781 50.5768C34.2577 50.6041 33.3201 50.6246 32.2058 50.6246C31.0915 50.6246 30.1675 50.6041 30.1471 50.5768C30.1335 50.5426 30.2219 50.4129 30.3509 50.2832C30.4868 50.1535 30.6567 49.8941 30.8945 49.3617L30.9149 44.3443C30.9285 41.1291 30.9081 39.1222 30.8605 38.7604C30.8266 38.4532 30.7314 38.0846 30.6635 37.9481C30.5887 37.8047 30.4529 37.5931 30.3577 37.4839C30.2626 37.3747 30.2015 37.2586 30.2219 37.2313C30.2422 37.1972 31.1187 37.1767 32.1718 37.1767V37.1767ZM33.5783 43.6958C34.448 43.6208 34.8828 43.5457 35.107 43.4842C35.3313 43.4228 35.6846 43.2931 35.8884 43.1975C36.0922 43.102 36.398 42.8903 36.5678 42.7333C36.7377 42.5832 36.9483 42.2896 37.0434 42.0848C37.1861 41.7708 37.2133 41.6138 37.2133 41.0677C37.2133 40.5011 37.1929 40.3783 37.0367 40.0779C36.9347 39.8936 36.7513 39.641 36.629 39.5318C36.4999 39.4157 36.2621 39.2587 36.0922 39.17C35.9224 39.0881 35.5691 38.9789 35.3109 38.9174C35.0459 38.8628 34.5499 38.815 34.2034 38.815H33.5783V43.6958ZM45.4549 37.1767C46.5624 37.1767 47.5001 37.1972 47.5272 37.2245C47.5544 37.2518 47.4865 37.3747 47.3778 37.4839C47.269 37.5931 47.1128 37.8116 47.038 37.9617C46.9361 38.1461 46.875 38.4532 46.8274 38.9174C46.7934 39.2929 46.7663 41.6138 46.7595 44.0713C46.7595 46.7813 46.7866 48.7405 46.8274 49.0408C46.8682 49.3071 46.9633 49.662 47.038 49.8259C47.1196 49.9829 47.2555 50.2081 47.3438 50.3174C47.4321 50.4266 47.4865 50.5426 47.4593 50.5768C47.4389 50.6041 46.5285 50.6246 45.4413 50.6246C44.3542 50.6246 43.4438 50.6041 43.4166 50.5768C43.3894 50.5495 43.4574 50.4129 43.5661 50.2832C43.6748 50.1535 43.8311 49.8941 44.0757 49.3617V38.3031L43.899 37.9617C43.7971 37.7774 43.6408 37.5453 43.5389 37.4498C43.4438 37.3542 43.3826 37.2586 43.403 37.2313C43.4234 37.1972 44.3474 37.1767 45.4549 37.1767V37.1767ZM65.2946 37.1767C66.4021 37.1767 67.333 37.1972 67.3601 37.2245C67.3873 37.2518 67.3194 37.3815 67.2107 37.5044C67.1019 37.6204 66.9457 37.8457 66.8709 37.9959C66.7962 38.1461 66.7079 38.4737 66.6671 38.7331C66.6331 38.9857 66.5992 40.0096 66.5992 42.8426H72.5103V41.0199C72.5103 40.0096 72.4763 38.9857 72.4424 38.7331C72.4084 38.4737 72.2997 38.1256 72.2113 37.9481C72.123 37.7638 71.9735 37.5453 71.8716 37.4498C71.7765 37.3542 71.7154 37.2586 71.7289 37.2313C71.7493 37.1972 72.687 37.1767 73.8216 37.1767C74.9495 37.1767 75.8939 37.1972 75.9279 37.2245C75.9551 37.2586 75.86 37.402 75.7173 37.5522C75.5678 37.7092 75.3979 37.989 75.3232 38.2007C75.2009 38.5625 75.1941 38.815 75.1941 49.4299L75.3504 49.7576C75.4319 49.9351 75.595 50.1808 75.7037 50.3037C75.8124 50.4198 75.8871 50.5426 75.86 50.5768C75.8396 50.6041 74.9155 50.6246 73.808 50.6246C72.7005 50.6246 71.7765 50.6041 71.7493 50.5768C71.7222 50.5495 71.7901 50.4198 71.8988 50.3037C72.0143 50.1808 72.1638 49.9556 72.2385 49.8054C72.3133 49.6552 72.4084 49.3071 72.4424 49.0408C72.4763 48.7678 72.5103 47.6415 72.5103 44.5491H66.5992L66.6195 46.9247C66.6331 49.1979 66.6399 49.3071 66.7894 49.6689C66.8709 49.8737 67.034 50.1604 67.1427 50.2969C67.2582 50.4402 67.3262 50.5699 67.299 50.5904C67.2786 50.6109 66.3478 50.6246 65.2267 50.6246C63.6572 50.6246 63.202 50.6041 63.202 50.5358C63.202 50.4949 63.2767 50.3788 63.3786 50.2832C63.4737 50.1877 63.6096 50.0034 63.6776 49.8737C63.7455 49.744 63.8338 49.4504 63.8814 49.2252C63.9357 48.9316 63.9493 47.3752 63.9358 43.6276C63.9154 38.501 63.9154 38.4328 63.7727 38.1324C63.6912 37.9617 63.5349 37.7092 63.4126 37.5658C63.2971 37.4293 63.2223 37.2791 63.2427 37.245C63.2631 37.204 64.0241 37.1767 65.2946 37.1767V37.1767ZM79.23 32.8079C79.3659 32.8079 79.5969 32.842 79.7464 32.8761C79.8958 32.9103 80.0589 32.9922 80.1065 33.0604C80.154 33.1287 80.188 33.2652 80.188 33.3676C80.188 33.4769 80.1268 33.6134 79.9094 33.7977L80.0793 34.1049C80.1744 34.2755 80.2356 34.4325 80.2084 34.4667C80.188 34.494 80.12 34.5145 80.0589 34.5145C79.9978 34.5145 79.8823 34.3779 79.8007 34.2073C79.658 33.9274 79.6241 33.9001 79.4066 33.9001C79.1688 33.9001 79.1688 33.9001 79.1688 34.2073C79.1688 34.4667 79.1484 34.5145 79.0329 34.5145C78.9039 34.5145 78.8971 34.4667 78.8835 33.7089C78.8835 33.2652 78.9039 32.8761 78.931 32.8557C78.965 32.8284 79.1009 32.8079 79.23 32.8079V32.8079ZM79.495 33.5451C79.7871 33.5246 79.8143 33.511 79.8143 33.354C79.8143 33.197 79.7871 33.1833 79.495 33.1628C79.1824 33.1424 79.1756 33.1424 79.1756 33.3472C79.1688 33.5588 79.1756 33.5588 79.495 33.5383V33.5451Z" fill="#2B73C2"></path></svg>